<?xml version="1.0" standalone="no"?>
<!DOCTYPE svg PUBLIC "-//W3C//DTD SVG 20010904//EN"
 "http://www.w3.org/TR/2001/REC-SVG-20010904/DTD/svg10.dtd">
<svg version="1.0" xmlns="http://www.w3.org/2000/svg"
 width="700.000000pt" height="700.000000pt" viewBox="0 0 700.000000 700.000000"
 preserveAspectRatio="xMidYMid meet">
<metadata>
Created by potrace 1.11, written by Peter Selinger 2001-2013
</metadata>
<g transform="translate(0.000000,700.000000) scale(0.100000,-0.100000)"
fill="#000000" stroke="none">
<path d="M0 3500 l0 -3500 1955 0 1955 0 0 545 0 545 -1530 0 -1530 0 0 2955
0 2955 -425 0 -425 0 0 -3500z"/>
<path d="M2160 6125 l0 -875 2420 0 2420 0 0 875 0 875 -2420 0 -2420 0 0
-875z"/>
<path d="M2160 3175 l0 -765 875 0 875 0 0 765 0 765 -875 0 -875 0 0 -765z"/>
<path d="M5220 1970 l0 -1970 890 0 890 0 0 1970 0 1970 -890 0 -890 0 0
-1970z"/>
</g>
</svg>
